# xmcd
#
# Track frame offsets: 
#        183
#        15970
#        33463
#        48543
#        68093
#        88808
#        102063
#        116123
#        129748
#        148415
#        165223
#        181878
#        193973
#        211778
#
# Disc length: 3083 seconds
#
# Revision: 0
# Processed by: cddbd v1.4PL0 Copyright (c) Steve Scherf et al.
# Submitted via: ExactAudioCopy v0.90b4
#
DISCID=c30c090e
DTITLE=Franfurt City Blues Band - Fine Arts - Whatever happens
DYEAR=1989
DGENRE=Jazz
TTITLE0=Gotta eat you
TTITLE1=Cold
TTITLE2=You take one
TTITLE3=Soul fire
TTITLE4=Nothing but your love
TTITLE5=Like a nobody
TTITLE6=I love the night
TTITLE7=Whatever happens
TTITLE8=You turned me on
TTITLE9=Pirates
TTITLE10=It's alright
TTITLE11=The blues is gonna stay
TTITLE12=Talk to your Lady
TTITLE13=Daybreak
EXTD=
EXTT0=
EXTT1=
EXTT2=
EXTT3=
EXTT4=
EXTT5=
EXTT6=
EXTT7=
EXTT8=
EXTT9=
EXTT10=
EXTT11=
EXTT12=
EXTT13=
PLAYORDER=
